<svg xmlns="http://www.w3.org/2000/svg" viewBox="0 0 64 64" role="img" aria-label="أيقونة رُشد">
  <defs>
    <linearGradient id="background" x1="8" y1="3" x2="57" y2="62" gradientUnits="userSpaceOnUse">
      <stop stop-color="#fffaf4"/>
      <stop offset="1" stop-color="#f3e7f4"/>
    </linearGradient>
    <radialGradient id="orb" cx="0" cy="0" r="1" gradientTransform="translate(25 20) rotate(48) scale(36)" gradientUnits="userSpaceOnUse">
      <stop stop-color="#b8afe8"/>
      <stop offset=".55" stop-color="#6b5fc7"/>
      <stop offset="1" stop-color="#3d356f"/>
    </radialGradient>
    <linearGradient id="orbit" x1="8" y1="27" x2="55" y2="43" gradientUnits="userSpaceOnUse">
      <stop stop-color="#ffd6b7"/>
      <stop offset=".55" stop-color="#f6b184"/>
      <stop offset="1" stop-color="#ffcfaa"/>
    </linearGradient>
  </defs>
  <rect width="64" height="64" rx="15" fill="url(#background)"/>
  <ellipse cx="32" cy="35" rx="27" ry="10.5" fill="none" stroke="#e9a97d" stroke-width="4.6" opacity=".72"/>
  <ellipse cx="13.5" cy="37" rx="5" ry="8.5" transform="rotate(18 13.5 37)" fill="#5547ad"/>
  <ellipse cx="50.5" cy="37" rx="5" ry="8.5" transform="rotate(-18 50.5 37)" fill="#5547ad"/>
  <ellipse cx="24" cy="52.5" rx="7" ry="4" fill="#443890"/>
  <ellipse cx="40" cy="52.5" rx="7" ry="4" fill="#443890"/>
  <circle cx="32" cy="32" r="20.5" fill="url(#orb)"/>
  <ellipse cx="25" cy="23" rx="7" ry="3.5" transform="rotate(-25 25 23)" fill="#fff" opacity=".3"/>
  <ellipse cx="25.5" cy="31" rx="2.5" ry="3.2" fill="#201b43"/>
  <ellipse cx="38.5" cy="31" rx="2.5" ry="3.2" fill="#201b43"/>
  <circle cx="26.3" cy="30" r=".65" fill="#fff"/>
  <circle cx="39.3" cy="30" r=".65" fill="#fff"/>
  <path d="M27.5 38.5c3 2.8 6 2.8 9 0" fill="none" stroke="#201b43" stroke-width="2.1" stroke-linecap="round"/>
  <path d="M6.5 35.5c6 8.5 17.5 12.3 29.5 11 10.2-1 17.4-5.2 21.5-10.5" fill="none" stroke="url(#orbit)" stroke-width="4.8" stroke-linecap="round"/>
</svg>
