<svg xmlns="http://www.w3.org/2000/svg" viewBox="0 0 64 64" role="img" aria-label="أيقونة رُشد">
  <defs>
    <linearGradient id="background" x1="8" y1="3" x2="57" y2="62" gradientUnits="userSpaceOnUse">
      <stop stop-color="#fffaf4"/>
      <stop offset="1" stop-color="#f3e7f4"/>
    </linearGradient>
    <radialGradient id="orb" cx="0" cy="0" r="1" gradientTransform="translate(25 20) rotate(48) scale(36)" gradientUnits="userSpaceOnUse">
      <stop stop-color="#b8afe8"/>
      <stop offset=".55" stop-color="#6b5fc7"/>
      <stop offset="1" stop-color="#3d356f"/>
    </radialGradient>
    <linearGradient id="orbit" x1="8" y1="27" x2="55" y2="43" gradientUnits="userSpaceOnUse">
      <stop stop-color="#ffd6b7"/>
      <stop offset=".55" stop-color="#f6b184"/>
      <stop offset="1" stop-color="#ffcfaa"/>
    </linearGradient>
  </defs>
  <rect width="64" height="64" rx="15" fill="url(#background)"/>
  <ellipse cx="32" cy="35" rx="27" ry="11" fill="none" stroke="#e9a97d" stroke-width="4.5" opacity=".68"/>
  <circle cx="32" cy="33" r="20.5" fill="url(#orb)"/>
  <ellipse cx="25" cy="25" rx="7" ry="4" transform="rotate(-25 25 25)" fill="#fff" opacity=".18"/>
  <circle cx="26" cy="32" r="2.2" fill="#252044"/>
  <circle cx="38" cy="32" r="2.2" fill="#252044"/>
  <path d="M27.5 39c3 2.7 6 2.7 9 0" fill="none" stroke="#252044" stroke-width="2.1" stroke-linecap="round"/>
  <path d="M6.5 35.5c6 8.5 17.5 12.3 29.5 11 10.2-1 17.4-5.2 21.5-10.5" fill="none" stroke="url(#orbit)" stroke-width="4.8" stroke-linecap="round"/>
  <path d="m51 8 1.5 4.2 4.2 1.5-4.2 1.5L51 19.4l-1.5-4.2-4.2-1.5 4.2-1.5Z" fill="#ef7c72"/>
</svg>
